# Blender 3.6.2
# www.blender.org
mtllib Airplane.mtl
o Cube.003
v -0.100000 1.300000 2.157915
v -0.100000 1.300000 2.057915
v 0.100000 1.300000 2.157915
v 0.100000 1.300000 2.057915
v 0.200000 0.200000 2.207915
v 1.300000 0.100000 2.157915
v 0.200000 0.200000 2.007915
v 1.300000 0.100000 2.057915
v 0.200000 -0.200000 2.207915
v 1.300000 -0.100000 2.157915
v 0.200000 -0.200000 2.007915
v 1.300000 -0.100000 2.057915
v 0.100000 -1.300000 2.157915
v 0.100000 -1.300000 2.057915
v -0.200000 -0.200000 2.207915
v -0.100000 -1.300000 2.157915
v -0.200000 -0.200000 2.007915
v -0.100000 -1.300000 2.057915
v -1.300000 -0.100000 2.157915
v -1.300000 -0.100000 2.057915
v -0.200000 0.200000 2.207915
v -1.300000 0.100000 2.157915
v -0.200000 0.200000 2.007915
v -1.300000 0.100000 2.057915
v 0.000000 1.000000 -2.000000
v 0.000000 1.000000 2.000000
v 0.195090 0.980785 -2.000000
v 0.195090 0.980785 2.000000
v 0.382683 0.923880 -2.000000
v 0.382683 0.923879 2.000000
v 0.555570 0.831470 -2.000000
v 0.555570 0.831470 2.000000
v 0.707107 0.707107 -2.000000
v 0.707107 0.707107 2.000000
v 0.831470 0.555570 -2.000000
v 0.831470 0.555570 2.000000
v 0.923880 0.382684 -2.000000
v 0.923880 0.382683 2.000000
v 0.980785 0.195090 -2.000000
v 0.980785 0.195090 2.000000
v 1.000000 0.000000 -2.000000
v 1.000000 -0.000000 2.000000
v 0.980785 -0.195090 -2.000000
v 0.980785 -0.195090 2.000000
v 0.923880 -0.382683 -2.000000
v 0.923880 -0.382684 2.000000
v 0.831470 -0.555570 -2.000000
v 0.831470 -0.555570 2.000000
v 0.707107 -0.707107 -2.000000
v 0.707107 -0.707107 2.000000
v 0.555570 -0.831470 -2.000000
v 0.555570 -0.831470 2.000000
v 0.382683 -0.923879 -2.000000
v 0.382683 -0.923880 2.000000
v 0.195090 -0.980785 -2.000000
v 0.195090 -0.980785 2.000000
v 0.000000 -1.000000 -2.000000
v 0.000000 -1.000000 2.000000
v -0.195090 -0.980785 -2.000000
v -0.195090 -0.980785 2.000000
v -0.382683 -0.923879 -2.000000
v -0.382683 -0.923880 2.000000
v -0.555570 -0.831470 -2.000000
v -0.555570 -0.831470 2.000000
v -0.707107 -0.707107 -2.000000
v -0.707107 -0.707107 2.000000
v -0.831470 -0.555570 -2.000000
v -0.831470 -0.555570 2.000000
v -0.923880 -0.382683 -2.000000
v -0.923880 -0.382684 2.000000
v -0.980785 -0.195090 -2.000000
v -0.980785 -0.195090 2.000000
v -1.000000 0.000000 -2.000000
v -1.000000 -0.000000 2.000000
v -0.980785 0.195090 -2.000000
v -0.980785 0.195090 2.000000
v -0.923880 0.382684 -2.000000
v -0.923880 0.382683 2.000000
v -0.831470 0.555570 -2.000000
v -0.831470 0.555570 2.000000
v -0.707107 0.707107 -2.000000
v -0.707107 0.707107 2.000000
v -0.555570 0.831470 -2.000000
v -0.555570 0.831470 2.000000
v -0.382683 0.923880 -2.000000
v -0.382683 0.923879 2.000000
v -0.195090 0.980785 -2.000000
v -0.195090 0.980785 2.000000
v -2.000000 1.200000 2.000000
v -2.000000 1.000000 2.000000
v -2.000000 1.200000 0.000000
v -2.000000 1.000000 0.000000
v 2.000000 1.200000 2.000000
v 2.000000 1.000000 2.000000
v 2.000000 1.200000 0.000000
v 2.000000 1.000000 0.000000
v -2.000000 -1.000000 2.000000
v -2.000000 -1.200000 2.000000
v -2.000000 -1.000000 0.000000
v -2.000000 -1.200000 0.000000
v 2.000000 -1.000000 2.000000
v 2.000000 -1.200000 2.000000
v 2.000000 -1.000000 0.000000
v 2.000000 -1.200000 0.000000
v -0.100000 -1.000000 -2.000000
v -0.100000 2.000000 -2.000000
v 0.100000 -1.000000 -2.000000
v 0.100000 2.000000 -2.000000
v -0.100000 2.000000 -2.496826
v -0.100000 0.996827 -3.500000
v -0.100000 1.706177 -3.206177
v 0.100000 0.996827 -3.500000
v 0.100000 2.000000 -2.496826
v 0.100000 1.706177 -3.206177
v -0.100000 -0.361258 -3.500000
v -0.100000 -1.000000 -2.861258
v -0.100000 -0.812917 -3.312917
v 0.100000 -1.000000 -2.861258
v 0.100000 -0.361258 -3.500000
v 0.100000 -0.812917 -3.312917
vn -0.9959 0.0905 -0.0000
vn -0.0000 0.0454 -0.9990
vn 0.9959 0.0905 -0.0000
vn -0.0000 0.0454 0.9990
vn -0.0000 1.0000 -0.0000
vn 0.0905 0.9959 -0.0000
vn 0.0454 -0.0000 -0.9990
vn 0.0905 -0.9959 -0.0000
vn 0.0454 -0.0000 0.9990
vn 1.0000 -0.0000 -0.0000
vn 0.9959 -0.0905 -0.0000
vn -0.0000 -0.0454 -0.9990
vn -0.9959 -0.0905 -0.0000
vn -0.0000 -0.0454 0.9990
vn -0.0000 -0.0000 1.0000
vn -0.0000 -1.0000 -0.0000
vn -0.0905 -0.9959 -0.0000
vn -0.0454 -0.0000 -0.9990
vn -0.0905 0.9959 -0.0000
vn -0.0454 -0.0000 0.9990
vn -0.0000 -0.0000 -1.0000
vn -1.0000 -0.0000 -0.0000
vn 0.0980 0.9952 -0.0000
vn 0.2903 0.9569 -0.0000
vn 0.4714 0.8819 -0.0000
vn 0.6344 0.7730 -0.0000
vn 0.7730 0.6344 -0.0000
vn 0.8819 0.4714 -0.0000
vn 0.9569 0.2903 -0.0000
vn 0.9952 0.0980 -0.0000
vn 0.9952 -0.0980 -0.0000
vn 0.9569 -0.2903 -0.0000
vn 0.8819 -0.4714 -0.0000
vn 0.7730 -0.6344 -0.0000
vn 0.6344 -0.7730 -0.0000
vn 0.4714 -0.8819 -0.0000
vn 0.2903 -0.9569 -0.0000
vn 0.0980 -0.9952 -0.0000
vn -0.0980 -0.9952 -0.0000
vn -0.2903 -0.9569 -0.0000
vn -0.4714 -0.8819 -0.0000
vn -0.6344 -0.7730 -0.0000
vn -0.7730 -0.6344 -0.0000
vn -0.8819 -0.4714 -0.0000
vn -0.9569 -0.2903 -0.0000
vn -0.9952 -0.0980 -0.0000
vn -0.9952 0.0980 -0.0000
vn -0.9569 0.2903 -0.0000
vn -0.8819 0.4714 -0.0000
vn -0.7730 0.6344 -0.0000
vn -0.6344 0.7730 -0.0000
vn -0.4714 0.8819 -0.0000
vn -0.2903 0.9569 -0.0000
vn -0.0980 0.9952 -0.0000
vn -0.0000 0.9239 -0.3827
vn -0.0000 0.3827 -0.9239
vn -0.0000 -0.9239 -0.3827
vn -0.0000 -0.3827 -0.9239
vt 0.375000 0.000000
vt 0.625000 0.000000
vt 0.625000 0.250000
vt 0.375000 0.250000
vt 0.625000 0.500000
vt 0.375000 0.500000
vt 0.625000 0.750000
vt 0.375000 0.750000
vt 0.625000 1.000000
vt 0.375000 1.000000
vt 0.875000 0.500000
vt 0.875000 0.750000
vt 1.000000 0.500000
vt 1.000000 1.000000
vt 0.968750 1.000000
vt 0.968750 0.500000
vt 0.937500 1.000000
vt 0.937500 0.500000
vt 0.906250 1.000000
vt 0.906250 0.500000
vt 0.875000 1.000000
vt 0.843750 1.000000
vt 0.843750 0.500000
vt 0.812500 1.000000
vt 0.812500 0.500000
vt 0.781250 1.000000
vt 0.781250 0.500000
vt 0.750000 1.000000
vt 0.750000 0.500000
vt 0.718750 1.000000
vt 0.718750 0.500000
vt 0.687500 1.000000
vt 0.687500 0.500000
vt 0.656250 1.000000
vt 0.656250 0.500000
vt 0.593750 1.000000
vt 0.593750 0.500000
vt 0.562500 1.000000
vt 0.562500 0.500000
vt 0.531250 1.000000
vt 0.531250 0.500000
vt 0.500000 1.000000
vt 0.500000 0.500000
vt 0.468750 1.000000
vt 0.468750 0.500000
vt 0.437500 1.000000
vt 0.437500 0.500000
vt 0.406250 1.000000
vt 0.406250 0.500000
vt 0.343750 1.000000
vt 0.343750 0.500000
vt 0.312500 1.000000
vt 0.312500 0.500000
vt 0.281250 1.000000
vt 0.281250 0.500000
vt 0.250000 1.000000
vt 0.250000 0.500000
vt 0.218750 1.000000
vt 0.218750 0.500000
vt 0.187500 1.000000
vt 0.187500 0.500000
vt 0.156250 1.000000
vt 0.156250 0.500000
vt 0.125000 1.000000
vt 0.125000 0.500000
vt 0.093750 1.000000
vt 0.093750 0.500000
vt 0.062500 1.000000
vt 0.062500 0.500000
vt 0.296822 0.485388
vt 0.250000 0.490000
vt 0.203178 0.485388
vt 0.158156 0.471731
vt 0.116663 0.449553
vt 0.080294 0.419706
vt 0.050447 0.383337
vt 0.028269 0.341844
vt 0.014612 0.296822
vt 0.010000 0.250000
vt 0.014612 0.203178
vt 0.028269 0.158156
vt 0.050447 0.116663
vt 0.080294 0.080294
vt 0.116663 0.050447
vt 0.158156 0.028269
vt 0.203178 0.014612
vt 0.250000 0.010000
vt 0.296822 0.014612
vt 0.341844 0.028269
vt 0.383337 0.050447
vt 0.419706 0.080294
vt 0.449553 0.116663
vt 0.471731 0.158156
vt 0.485388 0.203178
vt 0.490000 0.250000
vt 0.485388 0.296822
vt 0.471731 0.341844
vt 0.449553 0.383337
vt 0.419706 0.419706
vt 0.383337 0.449553
vt 0.341844 0.471731
vt 0.031250 1.000000
vt 0.031250 0.500000
vt 0.000000 1.000000
vt 0.000000 0.500000
vt 0.750000 0.490000
vt 0.796822 0.485388
vt 0.841844 0.471731
vt 0.883337 0.449553
vt 0.919706 0.419706
vt 0.949553 0.383337
vt 0.971731 0.341844
vt 0.985388 0.296822
vt 0.990000 0.250000
vt 0.985388 0.203178
vt 0.971731 0.158156
vt 0.949553 0.116663
vt 0.919706 0.080294
vt 0.883337 0.050447
vt 0.841844 0.028269
vt 0.796822 0.014612
vt 0.750000 0.010000
vt 0.703178 0.014612
vt 0.658156 0.028269
vt 0.616663 0.050447
vt 0.580294 0.080294
vt 0.550447 0.116663
vt 0.528269 0.158156
vt 0.514612 0.203178
vt 0.510000 0.250000
vt 0.514612 0.296822
vt 0.528269 0.341844
vt 0.550447 0.383337
vt 0.580294 0.419706
vt 0.616663 0.449553
vt 0.658156 0.471731
vt 0.703178 0.485388
vt 0.125000 0.750000
vt 0.375000 0.606457
vt 0.390590 0.531181
vt 0.428228 0.500000
vt 0.541402 0.500000
vt 0.600515 0.548970
vt 0.625000 0.667196
vt 0.428228 0.250000
vt 0.541402 0.250000
vt 0.428228 0.500000
vt 0.125000 0.606457
vt 0.375000 0.606457
vt 0.875000 0.667196
vt 0.625000 0.082804
vt 0.600515 0.201030
vt 0.428228 0.250000
vt 0.390590 0.218819
vt 0.375000 0.143543
s 0
f 21/1/1 1/2/1 2/3/1 23/4/1
f 23/4/2 2/3/2 4/5/2 7/6/2
f 7/6/3 4/5/3 3/7/3 5/8/3
f 5/8/4 3/7/4 1/9/4 21/10/4
f 4/5/5 2/11/5 1/12/5 3/7/5
f 5/1/6 6/2/6 8/3/6 7/4/6
f 7/4/7 8/3/7 12/5/7 11/6/7
f 11/6/8 12/5/8 10/7/8 9/8/8
f 9/8/9 10/7/9 6/9/9 5/10/9
f 12/5/10 8/11/10 6/12/10 10/7/10
f 9/1/11 13/2/11 14/3/11 11/4/11
f 11/4/12 14/3/12 18/5/12 17/6/12
f 17/6/13 18/5/13 16/7/13 15/8/13
f 15/8/14 16/7/14 13/9/14 9/10/14
f 5/8/15 21/10/15 15/10/15 9/10/15
f 18/5/16 14/11/16 13/12/16 16/7/16
f 15/1/17 19/2/17 20/3/17 17/4/17
f 17/4/18 20/3/18 24/5/18 23/6/18
f 23/6/19 24/5/19 22/7/19 21/8/19
f 21/8/20 22/7/20 19/9/20 15/10/20
f 11/4/21 17/6/21 23/6/21 7/6/21
f 24/5/22 20/11/22 19/12/22 22/7/22
f 25/13/23 26/14/23 28/15/23 27/16/23
f 27/16/24 28/15/24 30/17/24 29/18/24
f 29/18/25 30/17/25 32/19/25 31/20/25
f 31/20/26 32/19/26 34/21/26 33/11/26
f 33/11/27 34/21/27 36/22/27 35/23/27
f 35/23/28 36/22/28 38/24/28 37/25/28
f 37/25/29 38/24/29 40/26/29 39/27/29
f 39/27/30 40/26/30 42/28/30 41/29/30
f 41/29/31 42/28/31 44/30/31 43/31/31
f 43/31/32 44/30/32 46/32/32 45/33/32
f 45/33/33 46/32/33 48/34/33 47/35/33
f 47/35/34 48/34/34 50/9/34 49/5/34
f 49/5/35 50/9/35 52/36/35 51/37/35
f 51/37/36 52/36/36 54/38/36 53/39/36
f 53/39/37 54/38/37 56/40/37 55/41/37
f 55/41/38 56/40/38 58/42/38 57/43/38
f 57/43/39 58/42/39 60/44/39 59/45/39
f 59/45/40 60/44/40 62/46/40 61/47/40
f 61/47/41 62/46/41 64/48/41 63/49/41
f 63/49/42 64/48/42 66/10/42 65/6/42
f 65/6/43 66/10/43 68/50/43 67/51/43
f 67/51/44 68/50/44 70/52/44 69/53/44
f 69/53/45 70/52/45 72/54/45 71/55/45
f 71/55/46 72/54/46 74/56/46 73/57/46
f 73/57/47 74/56/47 76/58/47 75/59/47
f 75/59/48 76/58/48 78/60/48 77/61/48
f 77/61/49 78/60/49 80/62/49 79/63/49
f 79/63/50 80/62/50 82/64/50 81/65/50
f 81/65/51 82/64/51 84/66/51 83/67/51
f 83/67/52 84/66/52 86/68/52 85/69/52
f 28/70/15 26/71/15 88/72/15 86/73/15 84/74/15 82/75/15 80/76/15 78/77/15 76/78/15 74/79/15 72/80/15 70/81/15 68/82/15 66/83/15 64/84/15 62/85/15 60/86/15 58/87/15 56/88/15 54/89/15 52/90/15 50/91/15 48/92/15 46/93/15 44/94/15 42/95/15 40/96/15 38/97/15 36/98/15 34/99/15 32/100/15 30/101/15
f 85/69/53 86/68/53 88/102/53 87/103/53
f 87/103/54 88/102/54 26/104/54 25/105/54
f 25/106/21 27/107/21 29/108/21 31/109/21 33/110/21 35/111/21 37/112/21 39/113/21 41/114/21 43/115/21 45/116/21 47/117/21 49/118/21 51/119/21 53/120/21 55/121/21 57/122/21 59/123/21 61/124/21 63/125/21 65/126/21 67/127/21 69/128/21 71/129/21 73/130/21 75/131/21 77/132/21 79/133/21 81/134/21 83/135/21 85/136/21 87/137/21
f 89/1/22 91/4/22 92/3/22 90/2/22
f 91/4/21 95/6/21 96/5/21 92/3/21
f 95/6/10 93/8/10 94/7/10 96/5/10
f 93/8/15 89/10/15 90/9/15 94/7/15
f 91/65/5 89/138/5 93/8/5 95/6/5
f 96/5/16 94/7/16 90/12/16 92/11/16
f 97/1/22 99/4/22 100/3/22 98/2/22
f 99/4/21 103/6/21 104/5/21 100/3/21
f 103/6/10 101/8/10 102/7/10 104/5/10
f 101/8/15 97/10/15 98/9/15 102/7/15
f 99/65/5 97/138/5 101/8/5 103/6/5
f 104/5/16 102/7/16 98/12/16 100/11/16
f 118/139/10 120/140/10 119/141/10 112/142/10 114/143/10 113/144/10 108/7/10 107/8/10
f 107/8/15 108/7/15 106/9/15 105/10/15
f 115/145/21 110/146/21 112/142/21 119/147/21
f 116/148/16 118/149/16 107/8/16 105/138/16
f 109/150/55 113/144/55 114/5/55 111/11/55
f 111/3/56 114/5/56 112/142/56 110/146/56
f 113/144/5 109/150/5 106/12/5 108/7/5
f 118/149/57 116/148/57 117/65/57 120/6/57
f 120/6/58 117/4/58 115/145/58 119/147/58
f 105/1/22 106/2/22 109/151/22 111/152/22 110/146/22 115/153/22 117/154/22 116/155/22
