# Blender 3.6.2
# www.blender.org
mtllib base.mtl
o Cylinder
v 0.000000 -0.960683 -0.924770
v -0.353894 -0.960683 -0.854376
v -0.653912 -0.960683 -0.653911
v -0.854376 -0.960683 -0.353894
v -0.924770 -0.960683 0.000000
v -0.854376 -0.960683 0.353894
v -0.653912 -0.960683 0.653911
v -0.353894 -0.960683 0.854376
v 0.000000 -0.960683 0.924770
v 0.353894 -0.960683 0.854376
v 0.653911 -0.960683 0.653911
v 0.854377 -0.960683 0.353894
v 0.924771 -0.960683 0.000000
v 0.854377 -0.960683 -0.353894
v 0.653911 -0.960683 -0.653911
v 0.353894 -0.960683 -0.854376
v 0.220535 -0.757791 0.317983
v 0.220535 0.152412 0.141069
v 0.220535 -0.757791 -0.317983
v 0.220535 0.152412 -0.141069
v 0.388828 -0.757791 0.317983
v 0.276438 0.152412 0.141069
v 0.388828 -0.757791 -0.317983
v 0.276438 0.152412 -0.141069
v -0.220535 -0.757791 0.317983
v -0.220535 0.152412 0.141069
v -0.220535 -0.757791 -0.317983
v -0.220535 0.152412 -0.141069
v -0.388828 -0.757791 0.317983
v -0.276438 0.152412 0.141069
v -0.388828 -0.757791 -0.317983
v -0.276438 0.152412 -0.141069
v -0.000000 -0.627765 -0.652371
v 0.000000 -0.894931 -0.924770
v -0.249652 -0.627765 -0.602712
v -0.353894 -0.894931 -0.854376
v -0.461296 -0.627766 -0.461296
v -0.653912 -0.894931 -0.653911
v -0.602712 -0.627765 -0.249652
v -0.854376 -0.894931 -0.353894
v -0.652371 -0.627766 0.000000
v -0.924770 -0.894931 0.000000
v -0.602712 -0.627765 0.249652
v -0.854376 -0.894931 0.353894
v -0.461296 -0.627766 0.461296
v -0.653912 -0.894931 0.653911
v -0.249652 -0.627765 0.602712
v -0.353894 -0.894931 0.854376
v -0.000000 -0.627765 0.652371
v 0.000000 -0.894931 0.924770
v 0.249652 -0.627765 0.602712
v 0.353894 -0.894931 0.854376
v 0.461296 -0.627766 0.461296
v 0.653911 -0.894931 0.653911
v 0.602712 -0.627765 0.249652
v 0.854377 -0.894931 0.353894
v 0.652371 -0.627765 0.000000
v 0.924771 -0.894931 0.000000
v 0.602712 -0.627765 -0.249652
v 0.854377 -0.894931 -0.353894
v 0.461296 -0.627766 -0.461296
v 0.653911 -0.894931 -0.653911
v 0.249652 -0.627765 -0.602712
v 0.353894 -0.894931 -0.854376
vn 0.1951 -0.0000 -0.9808
vn -0.8315 -0.0000 -0.5556
vn -0.9808 -0.0000 -0.1951
vn -0.9808 -0.0000 0.1951
vn -0.8315 -0.0000 0.5556
vn -0.5556 -0.0000 0.8315
vn -0.1951 -0.0000 0.9808
vn 0.1951 -0.0000 0.9808
vn 0.5556 -0.0000 0.8315
vn 0.8315 -0.0000 0.5556
vn 0.9808 -0.0000 0.1951
vn 0.9808 -0.0000 -0.1951
vn 0.8315 -0.0000 -0.5556
vn 0.5556 -0.0000 -0.8315
vn -0.0000 -1.0000 -0.0000
vn -0.5556 -0.0000 -0.8315
vn -0.1951 -0.0000 -0.9808
vn -1.0000 -0.0000 -0.0000
vn -0.0000 0.1908 -0.9816
vn 0.9925 0.1225 -0.0000
vn -0.0000 0.1908 0.9816
vn -0.0000 1.0000 -0.0000
vn 1.0000 -0.0000 -0.0000
vn -0.9925 0.1225 -0.0000
vn -0.1379 0.7071 -0.6935
vn -0.3928 0.7071 -0.5879
vn -0.5879 0.7071 -0.3928
vn -0.6935 0.7071 -0.1379
vn -0.6935 0.7071 0.1379
vn -0.5879 0.7071 0.3928
vn -0.3928 0.7071 0.5879
vn -0.1379 0.7071 0.6935
vn 0.1379 0.7071 0.6935
vn 0.3928 0.7071 0.5879
vn 0.5879 0.7071 0.3928
vn 0.6935 0.7071 0.1379
vn 0.6935 0.7071 -0.1379
vn 0.5879 0.7071 -0.3928
vn 0.3928 0.7071 -0.5879
vn 0.1379 0.7071 -0.6935
vt 0.062500 0.901249
vt 0.062500 1.000000
vt 0.000000 1.000000
vt 0.000000 0.901249
vt 0.875000 0.901249
vt 0.875000 1.000000
vt 0.812500 1.000000
vt 0.812500 0.901249
vt 0.812500 0.901249
vt 0.750000 1.000000
vt 0.750000 0.901249
vt 0.750000 0.901249
vt 0.687500 1.000000
vt 0.687500 0.901249
vt 0.687500 0.901249
vt 0.625000 1.000000
vt 0.625000 0.901249
vt 0.562500 1.000000
vt 0.562500 0.901249
vt 0.562500 0.901249
vt 0.500000 1.000000
vt 0.500000 0.901249
vt 0.500000 0.901249
vt 0.437500 1.000000
vt 0.437500 0.901249
vt 0.437500 0.901249
vt 0.375000 1.000000
vt 0.375000 0.901249
vt 0.375000 0.901249
vt 0.312500 1.000000
vt 0.312500 0.901249
vt 0.312500 0.901249
vt 0.250000 1.000000
vt 0.250000 0.901249
vt 0.250000 0.901249
vt 0.187500 1.000000
vt 0.187500 0.901249
vt 0.187500 0.901249
vt 0.125000 1.000000
vt 0.125000 0.901249
vt 0.125000 0.901249
vt 0.062500 0.901249
vt 0.341844 0.471731
vt 0.250000 0.490000
vt 0.158156 0.471731
vt 0.080294 0.419706
vt 0.028269 0.341844
vt 0.010000 0.250000
vt 0.028269 0.158156
vt 0.080294 0.080294
vt 0.158156 0.028269
vt 0.250000 0.010000
vt 0.341844 0.028269
vt 0.419706 0.080294
vt 0.471731 0.158156
vt 0.490000 0.250000
vt 0.471731 0.341844
vt 0.419706 0.419706
vt 0.937500 0.901249
vt 0.937500 1.000000
vt 0.875000 0.901249
vt 1.000000 0.901249
vt 1.000000 1.000000
vt 0.375000 0.000000
vt 0.625000 0.000000
vt 0.625000 0.250000
vt 0.375000 0.250000
vt 0.625000 0.500000
vt 0.375000 0.500000
vt 0.625000 0.750000
vt 0.375000 0.750000
vt 0.125000 0.500000
vt 0.125000 0.750000
vt 0.875000 0.500000
vt 0.875000 0.750000
vt 0.946705 0.500000
vt 0.990795 0.500000
vt 0.884205 0.500000
vt 0.928295 0.500000
vt 0.821705 0.500000
vt 0.865795 0.500000
vt 0.759205 0.500000
vt 0.803295 0.500000
vt 0.696705 0.500000
vt 0.740795 0.500000
vt 0.634205 0.500000
vt 0.678295 0.500000
vt 0.571705 0.500000
vt 0.615795 0.500000
vt 0.509205 0.500000
vt 0.553295 0.500000
vt 0.446705 0.500000
vt 0.490795 0.500000
vt 0.384205 0.500000
vt 0.428295 0.500000
vt 0.321705 0.500000
vt 0.365795 0.500000
vt 0.259205 0.500000
vt 0.303295 0.500000
vt 0.196705 0.500000
vt 0.240795 0.500000
vt 0.134205 0.500000
vt 0.178295 0.500000
vt 0.071705 0.500000
vt 0.115795 0.500000
vt 0.009205 0.500000
vt 0.053295 0.500000
vt 0.750000 0.419306
vt 0.814791 0.406418
vt 0.869717 0.369717
vt 0.906418 0.314791
vt 0.919306 0.250000
vt 0.906418 0.185209
vt 0.869717 0.130283
vt 0.814791 0.093582
vt 0.750000 0.080694
vt 0.685209 0.093582
vt 0.630283 0.130283
vt 0.593582 0.185209
vt 0.580694 0.250000
vt 0.593582 0.314791
vt 0.630283 0.369717
vt 0.685209 0.406418
s 0
usemtl Material.004
f 64/1/1 16/2/1 1/3/1 34/4/1
f 38/5/2 3/6/2 4/7/2 40/8/2
f 40/9/3 4/7/3 5/10/3 42/11/3
f 42/12/4 5/10/4 6/13/4 44/14/4
f 44/15/5 6/13/5 7/16/5 46/17/5
f 46/17/6 7/16/6 8/18/6 48/19/6
f 48/20/7 8/18/7 9/21/7 50/22/7
f 50/23/8 9/21/8 10/24/8 52/25/8
f 52/26/9 10/24/9 11/27/9 54/28/9
f 54/29/10 11/27/10 12/30/10 56/31/10
f 56/32/11 12/30/11 13/33/11 58/34/11
f 58/35/12 13/33/12 14/36/12 60/37/12
f 60/38/13 14/36/13 15/39/13 62/40/13
f 62/41/14 15/39/14 16/2/14 64/42/14
f 2/43/15 1/44/15 16/45/15 15/46/15 14/47/15 13/48/15 12/49/15 11/50/15 10/51/15 9/52/15 8/53/15 7/54/15 6/55/15 5/56/15 4/57/15 3/58/15
f 36/59/16 2/60/16 3/6/16 38/61/16
f 34/62/17 1/63/17 2/60/17 36/59/17
f 17/64/18 18/65/18 20/66/18 19/67/18
f 19/67/19 20/66/19 24/68/19 23/69/19
f 23/69/20 24/68/20 22/70/20 21/71/20
f 21/71/21 22/70/21 18/16/21 17/27/21
f 19/72/15 23/69/15 21/71/15 17/73/15
f 24/68/22 20/74/22 18/75/22 22/70/22
f 25/64/23 27/67/23 28/66/23 26/65/23
f 27/67/19 31/69/19 32/68/19 28/66/19
f 31/69/24 29/71/24 30/70/24 32/68/24
f 29/71/21 25/27/21 26/16/21 30/70/21
f 27/72/15 25/73/15 29/71/15 31/69/15
f 32/68/22 30/70/22 26/75/22 28/74/22
f 34/62/25 36/59/25 35/76/25 33/77/25
f 36/59/26 38/61/26 37/78/26 35/79/26
f 38/5/27 40/8/27 39/80/27 37/81/27
f 40/9/28 42/11/28 41/82/28 39/83/28
f 42/12/29 44/14/29 43/84/29 41/85/29
f 44/15/30 46/17/30 45/86/30 43/87/30
f 46/17/31 48/19/31 47/88/31 45/89/31
f 48/20/32 50/22/32 49/90/32 47/91/32
f 50/23/33 52/25/33 51/92/33 49/93/33
f 52/26/34 54/28/34 53/94/34 51/95/34
f 54/29/35 56/31/35 55/96/35 53/97/35
f 56/32/36 58/34/36 57/98/36 55/99/36
f 58/35/37 60/37/37 59/100/37 57/101/37
f 60/38/38 62/40/38 61/102/38 59/103/38
f 62/41/39 64/42/39 63/104/39 61/105/39
f 64/1/40 34/4/40 33/106/40 63/107/40
f 33/108/22 35/109/22 37/110/22 39/111/22 41/112/22 43/113/22 45/114/22 47/115/22 49/116/22 51/117/22 53/118/22 55/119/22 57/120/22 59/121/22 61/122/22 63/123/22
