# Blender 3.6.2
# www.blender.org
mtllib Bullet.mtl
o Cylinder.004
v 0.000000 0.032588 0.113019
v 0.000000 0.028205 0.165552
v 0.023043 0.023043 0.113019
v 0.019944 0.019944 0.165552
v 0.032588 0.000000 0.113019
v 0.028205 -0.000000 0.165552
v 0.023043 -0.023043 0.113019
v 0.019944 -0.019944 0.165552
v 0.000000 -0.032588 0.113019
v 0.000000 -0.028205 0.165552
v -0.023043 -0.023043 0.113019
v -0.019944 -0.019944 0.165552
v -0.032588 0.000000 0.113019
v -0.028205 -0.000000 0.165552
v -0.023043 0.023043 0.113019
v -0.019944 0.019944 0.165552
v 0.000000 0.032588 0.127254
v 0.023043 0.023043 0.127254
v 0.032588 0.000000 0.127254
v 0.023043 -0.023043 0.127254
v 0.000000 -0.032588 0.127254
v -0.023043 -0.023043 0.127254
v -0.032588 0.000000 0.127254
v -0.023043 0.023043 0.127254
v 0.008339 0.008339 0.243723
v -0.000000 0.011793 0.243723
v 0.011793 -0.000000 0.243723
v 0.008339 -0.008339 0.243723
v -0.000000 -0.011793 0.243723
v -0.008339 -0.008339 0.243723
v -0.011793 -0.000000 0.243723
v -0.008339 0.008339 0.243723
vn 0.3806 0.9188 0.1051
vn 0.9188 0.3806 0.1051
vn 0.9188 -0.3806 0.1051
vn 0.3806 -0.9188 0.1051
vn -0.3806 -0.9188 0.1051
vn -0.9188 -0.3806 0.1051
vn 0.9070 -0.3757 0.1904
vn -0.9188 0.3806 0.1051
vn -0.3806 0.9188 0.1051
vn -0.0000 -0.0000 -1.0000
vn -0.3827 0.9239 -0.0000
vn -0.9239 0.3827 -0.0000
vn -0.9239 -0.3827 -0.0000
vn -0.3827 -0.9239 -0.0000
vn 0.3827 -0.9239 -0.0000
vn 0.9239 -0.3827 -0.0000
vn 0.9239 0.3827 -0.0000
vn 0.3827 0.9239 -0.0000
vn -0.0000 -0.0000 1.0000
vn -0.9070 -0.3757 0.1904
vn 0.3757 -0.9070 0.1904
vn -0.9070 0.3757 0.1904
vn 0.9070 0.3757 0.1904
vn -0.3757 -0.9070 0.1904
vn -0.3757 0.9070 0.1904
vn 0.3757 0.9070 0.1904
vt 1.000000 0.706189
vt 1.000000 1.000000
vt 0.875000 1.000000
vt 0.875000 0.706189
vt 0.750000 1.000000
vt 0.750000 0.706189
vt 0.625000 1.000000
vt 0.625000 0.706189
vt 0.500000 1.000000
vt 0.500000 0.706189
vt 0.375000 1.000000
vt 0.375000 0.706189
vt 0.250000 1.000000
vt 0.250000 0.706189
vt 0.125000 1.000000
vt 0.125000 0.706189
vt 0.000000 1.000000
vt 0.000000 0.706189
vt 0.750000 0.490000
vt 0.919706 0.419706
vt 0.990000 0.250000
vt 0.919706 0.080294
vt 0.750000 0.010000
vt 0.580294 0.080294
vt 0.510000 0.250000
vt 0.580294 0.419706
vt 0.125000 0.500000
vt 0.000000 0.500000
vt 0.250000 0.500000
vt 0.375000 0.500000
vt 0.500000 0.500000
vt 0.625000 0.500000
vt 0.750000 0.500000
vt 0.875000 0.500000
vt 1.000000 0.500000
vt 0.419706 0.419706
vt 0.250000 0.490000
vt 0.080294 0.419706
vt 0.010000 0.250000
vt 0.080294 0.080294
vt 0.250000 0.010000
vt 0.419706 0.080294
vt 0.490000 0.250000
s 0
usemtl Material.008
f 17/1/1 2/2/1 4/3/1 18/4/1
f 18/4/2 4/3/2 6/5/2 19/6/2
f 19/6/3 6/5/3 8/7/3 20/8/3
f 20/8/4 8/7/4 10/9/4 21/10/4
f 21/10/5 10/9/5 12/11/5 22/12/5
f 22/12/6 12/11/6 14/13/6 23/14/6
f 8/7/7 6/5/7 27/5/7 28/7/7
f 23/14/8 14/13/8 16/15/8 24/16/8
f 24/16/9 16/15/9 2/17/9 17/18/9
f 1/19/10 3/20/10 5/21/10 7/22/10 9/23/10 11/24/10 13/25/10 15/26/10
f 15/27/11 24/16/11 17/18/11 1/28/11
f 13/29/12 23/14/12 24/16/12 15/27/12
f 11/30/13 22/12/13 23/14/13 13/29/13
f 9/31/14 21/10/14 22/12/14 11/30/14
f 7/32/15 20/8/15 21/10/15 9/31/15
f 5/33/16 19/6/16 20/8/16 7/32/16
f 3/34/17 18/4/17 19/6/17 5/33/17
f 1/35/18 17/1/18 18/4/18 3/34/18
f 25/36/19 26/37/19 32/38/19 31/39/19 30/40/19 29/41/19 28/42/19 27/43/19
f 14/13/20 12/11/20 30/11/20 31/13/20
f 10/9/21 8/7/21 28/7/21 29/9/21
f 16/15/22 14/13/22 31/13/22 32/15/22
f 6/5/23 4/3/23 25/3/23 27/5/23
f 12/11/24 10/9/24 29/9/24 30/11/24
f 2/17/25 16/15/25 32/15/25 26/17/25
f 4/3/26 2/2/26 26/2/26 25/3/26
