# Blender 4.1.1
# www.blender.org
mtllib pistol2.mtl
o Cylinder
v -0.021072 0.036541 -0.007635
v -0.021072 0.033058 0.094680
v -0.011597 0.032616 -0.007635
v -0.014059 0.030153 0.094680
v -0.007672 0.023140 -0.007635
v -0.011154 0.023140 0.094680
v -0.011597 0.013664 -0.007635
v -0.014059 0.016127 0.094680
v -0.021072 0.009739 -0.007635
v -0.021072 0.013222 0.094680
v -0.030548 0.013664 -0.007635
v -0.028086 0.016127 0.094680
v -0.034473 0.023140 -0.007635
v -0.030991 0.023140 0.094680
v -0.030548 0.032616 -0.007635
v -0.028086 0.030153 0.094680
v -0.037068 0.016730 0.044063
v -0.037068 0.029550 0.034358
v -0.035031 0.037321 -0.013476
v -0.017212 -0.014784 -0.020292
v -0.024933 -0.014784 -0.020292
v -0.017212 0.005016 0.016361
v -0.024933 0.005016 0.016361
v -0.005076 0.016730 0.044063
v -0.026737 0.003910 0.055409
v -0.026737 0.042370 0.031665
v -0.015408 -0.034119 -0.032826
v -0.026737 0.003910 -0.006795
v -0.026737 -0.034119 -0.032826
v -0.026737 0.042370 -0.006795
v -0.015408 0.003910 0.055409
v -0.005076 0.029550 0.034358
v -0.015408 0.042370 0.031665
v -0.015408 0.003910 -0.006795
v -0.015408 0.042370 -0.006795
v -0.007114 0.037321 -0.013476
v -0.017212 -0.013090 0.004978
v -0.024933 -0.013090 0.004978
v -0.017212 -0.012691 -0.021541
v -0.024933 -0.012691 -0.021541
v -0.017212 0.007109 0.015112
v -0.024933 0.007109 0.015112
v -0.017212 -0.010997 0.003728
v -0.024933 -0.010997 0.003728
v -0.013360 -0.021299 -0.051555
v -0.007751 -0.026883 -0.043397
v -0.028785 0.016730 -0.025524
v -0.034394 0.011146 -0.017366
v -0.037068 0.016730 -0.014007
v -0.035001 0.026436 -0.019844
v -0.034394 -0.026883 -0.043397
v -0.028785 -0.021299 -0.051555
v -0.007751 0.011146 -0.017366
v -0.013360 0.016730 -0.025524
v -0.007143 0.026436 -0.019844
v -0.005076 0.016730 -0.014007
v -0.011597 0.032616 0.094680
v -0.021072 0.036541 0.094680
v -0.007672 0.023140 0.094680
v -0.011597 0.013664 0.094680
v -0.021072 0.009739 0.094680
v -0.030548 0.013664 0.094680
v -0.034473 0.023140 0.094680
v -0.030548 0.032616 0.094680
v -0.014059 0.030153 0.148774
v -0.021072 0.033058 0.148774
v -0.011154 0.023140 0.148774
v -0.014059 0.016127 0.148774
v -0.021072 0.013222 0.148774
v -0.028086 0.016127 0.148774
v -0.030991 0.023140 0.148774
v -0.028086 0.030153 0.148774
v -0.005076 0.016730 0.127302
v -0.037068 0.016730 0.127302
v -0.015408 0.003910 0.127302
v -0.026737 0.003910 0.127302
v -0.021072 0.037321 -0.013476
v -0.031893 0.021583 -0.022684
v -0.010252 0.021583 -0.022684
v -0.021072 0.016730 -0.025524
v -0.035016 0.031879 -0.016660
v -0.007129 0.031879 -0.016660
vn 0.3827 0.9239 -0.0000
vn 0.9239 0.3827 -0.0000
vn 0.9239 -0.3827 -0.0000
vn 0.3827 -0.9239 -0.0000
vn -0.3827 -0.9239 -0.0000
vn -0.9239 -0.3827 -0.0000
vn -0.9239 0.3827 -0.0000
vn -0.3827 0.9239 -0.0000
vn -0.0000 -0.0000 -1.0000
vn -0.0000 1.0000 -0.0000
vn -0.5200 0.8542 -0.0000
vn 0.9981 -0.0367 -0.0485
vn -0.7786 -0.6275 -0.0000
vn -0.0000 0.5050 -0.8631
vn -0.0000 0.2056 0.9786
vn -0.0000 0.6036 0.7973
vn 0.7694 0.6348 0.0704
vn -0.0000 0.7978 -0.6029
vn -0.9949 0.0989 -0.0172
vn -0.0000 -1.0000 -0.0000
vn 0.7817 -0.6236 0.0113
vn -0.8584 -0.2898 0.4234
vn -0.7694 0.6348 0.0704
vn 0.9949 0.0989 -0.0172
vn 0.5200 0.8542 -0.0000
vn -0.7817 -0.6236 0.0113
vn -0.9981 -0.0367 -0.0485
vn -0.0000 -0.8252 -0.5649
vn -0.0000 -0.5649 0.8252
vn -0.0000 0.5649 -0.8252
vn -0.0000 -0.9978 0.0669
vn -0.0000 -0.5323 0.8466
vn -0.0000 0.9978 -0.0669
vn -0.0000 0.5323 -0.8466
vn -1.0000 -0.0000 -0.0000
vn 1.0000 -0.0000 -0.0000
vn -0.0000 -0.5126 -0.8586
vn -0.0000 0.5126 0.8586
vn -0.8054 -0.1259 -0.5792
vn 0.8054 -0.1259 -0.5792
vn 0.8698 0.2787 -0.4072
vn -0.8698 0.2787 -0.4072
vn 0.8584 -0.2898 0.4234
vn -0.0000 -0.0000 1.0000
vn 0.7786 -0.6275 -0.0000
vt 1.000000 0.500000
vt 1.000000 1.000000
vt 0.875000 1.000000
vt 0.875000 0.500000
vt 0.750000 1.000000
vt 0.750000 0.500000
vt 0.625000 1.000000
vt 0.625000 0.500000
vt 0.500000 1.000000
vt 0.500000 0.500000
vt 0.375000 1.000000
vt 0.375000 0.500000
vt 0.250000 1.000000
vt 0.250000 0.500000
vt 0.250000 0.072373
vt 0.375601 0.124399
vt 0.125000 1.000000
vt 0.125000 0.500000
vt 0.000000 1.000000
vt 0.000000 0.500000
vt 0.750000 0.490000
vt 0.919706 0.419706
vt 0.990000 0.250000
vt 0.919706 0.080294
vt 0.750000 0.010000
vt 0.580294 0.080294
vt 0.510000 0.250000
vt 0.580294 0.419706
vt 0.713177 0.500000
vt 0.786823 0.500000
vt 0.786823 0.750000
vt 0.713177 0.750000
vt 0.541667 0.250000
vt 0.625000 0.000000
vt 0.625000 0.250000
vt 0.458333 0.750000
vt 0.541667 0.500000
vt 0.541667 0.750000
vt 0.125000 0.750000
vt 0.213177 0.750000
vt 0.458333 0.324864
vt 0.477974 0.287432
vt 0.497615 0.250000
vt 0.519641 0.250000
vt 0.541667 0.375000
vt 0.519641 0.500000
vt 0.497615 0.500000
vt 0.477974 0.462568
vt 0.458333 0.425136
vt 0.458333 0.375000
vt 0.625000 0.838177
vt 0.625000 0.911823
vt 0.541667 1.000000
vt 0.458333 1.000000
vt 0.625000 0.338177
vt 0.625000 0.411823
vt 0.458333 0.000000
vt 0.458333 0.208623
vt 0.213177 0.500000
vt 0.286823 0.500000
vt 0.286823 0.750000
vt 0.383627 0.500000
vt 0.458333 0.541377
vt 0.163408 0.500000
vt 0.541667 0.000000
vt 0.125000 0.541377
vt 0.375000 0.338177
vt 0.422035 0.288408
vt 0.422035 0.461592
vt 0.375000 0.411823
vt 0.000000 0.000000
vt 1.000000 0.000000
vt 0.144704 0.500000
vt 0.125000 0.520404
vt 0.134852 0.510202
vt 0.420007 0.500000
vt 0.458811 0.500000
vt 0.250000 0.427627
vt 0.375601 0.375601
vt 0.419706 0.419706
vt 0.250000 0.490000
vt 0.427627 0.250000
vt 0.490000 0.250000
vt 0.419706 0.080294
vt 0.250000 0.010000
vt 0.124399 0.124399
vt 0.080294 0.080294
vt 0.072373 0.250000
vt 0.010000 0.250000
vt 0.124399 0.375601
vt 0.080294 0.419706
vt 0.375000 0.838177
vt 0.375000 0.911823
s 0
usemtl Material.001
f 7/8/4 60/7/4 61/9/4 9/10/4
f 9/10/5 61/9/5 62/11/5 11/12/5
f 1/21/9 3/22/9 5/23/9 7/24/9 9/25/9 11/26/9 13/27/9 15/28/9
f 47/41/14 78/42/14 50/43/14 81/44/14 19/33/14 77/45/14 36/37/14 82/46/14 55/47/14 79/48/14 54/49/14 80/50/14
f 20/2/37 21/19/37 40/19/37 39/2/37
f 23/71/38 22/72/38 41/72/38 42/71/38
f 8/16/44 10/15/44 61/85/44 60/84/44
f 10/15/44 12/86/44 62/87/44 61/85/44
f 65/79/44 66/78/44 72/90/44 71/88/44 70/86/44 69/15/44 68/16/44 67/82/44
usemtl Material.002
f 17/39/13 25/40/13 76/40/13 74/39/13
f 28/59/20 34/60/20 31/61/20 25/40/20
f 31/61/21 34/60/21 53/62/21 56/63/21 24/36/21
f 28/59/22 48/64/22 51/64/22 29/59/22
f 28/59/26 25/40/26 17/39/26 49/66/26 48/64/26
f 34/60/29 28/59/29 29/59/29 27/60/29
f 53/62/43 34/60/43 27/60/43 46/62/43
f 75/92/44 73/36/44 74/54/44 76/93/44
f 31/61/45 24/36/45 73/36/45 75/61/45
f 24/36/10 17/54/10 74/54/10 73/36/10
f 25/40/20 31/61/20 75/61/20 76/40/20
usemtl Material.003
f 10/15/4 8/16/4 68/16/4 69/15/4
f 6/82/2 4/79/2 65/79/2 67/82/2
f 16/90/7 14/88/7 71/88/7 72/90/7
f 12/86/5 10/15/5 69/15/5 70/86/5
f 8/16/3 6/82/3 67/82/3 68/16/3
f 4/79/1 2/78/1 66/78/1 65/79/1
f 2/78/8 16/90/8 72/90/8 66/78/8
f 14/88/6 12/86/6 70/86/6 71/88/6
usemtl Material.004
f 1/1/1 58/2/1 57/3/1 3/4/1
f 3/4/2 57/3/2 59/5/2 5/6/2
f 5/6/3 59/5/3 60/7/3 7/8/3
f 11/12/6 62/11/6 63/13/6 13/14/6
f 13/14/7 63/13/7 64/17/7 15/18/7
f 15/18/8 64/17/8 58/19/8 1/20/8
f 32/38/15 33/51/15 26/52/15 18/53/15
f 24/36/16 32/38/16 18/53/16 17/54/16
f 2/78/44 4/79/44 57/80/44 58/81/44
f 4/79/44 6/82/44 59/83/44 57/80/44
f 6/82/44 8/16/44 60/84/44 59/83/44
f 12/86/44 14/88/44 63/89/44 62/87/44
f 14/88/44 16/90/44 64/91/44 63/89/44
f 16/90/44 2/78/44 58/81/44 64/91/44
usemtl Material.005
f 17/57/19 19/33/19 81/44/19 50/43/19 49/58/19
f 56/63/24 55/47/24 82/46/24 36/37/24 24/36/24
f 47/41/30 80/50/30 54/49/30 45/49/30 52/41/30
f 47/73/39 48/64/39 49/66/39 50/74/39 78/75/39
f 53/62/40 54/76/40 79/77/40 55/47/40 56/63/40
f 47/18/42 52/18/42 51/64/42 48/64/42
usemtl Material.006
f 29/67/28 51/68/28 52/41/28 45/49/28 46/69/28 27/70/28
f 38/20/31 21/19/31 20/2/31 37/1/31
f 23/71/32 38/20/32 37/1/32 22/72/32
f 44/20/33 43/1/33 39/2/33 40/19/33
f 42/71/34 41/72/34 43/1/34 44/20/34
f 38/20/35 23/71/35 42/71/35 44/20/35
f 37/1/36 20/2/36 39/2/36 43/1/36
f 21/19/35 38/20/35 44/20/35 40/19/35
f 22/72/36 37/1/36 43/1/36 41/72/36
f 53/62/41 46/62/41 45/49/41 54/49/41
usemtl Material.007
f 36/37/17 33/32/17 32/38/17
f 26/34/23 19/33/23 18/65/23
usemtl Material.008
f 19/33/11 26/34/11 30/35/11
f 24/36/12 36/37/12 32/38/12
f 35/29/25 33/32/25 36/37/25
f 19/33/27 17/57/27 18/65/27
usemtl Material.009
f 35/29/10 30/30/10 26/31/10 33/32/10
f 19/33/18 30/55/18 35/56/18 36/37/18 77/45/18
